{
	"asset":{
		"generator":"Khronos glTF Blender I/O v5.2.39",
		"version":"2.0"
	},
	"scene":0,
	"scenes":[
		{
			"name":"Scene",
			"nodes":[
				0
			]
		}
	],
	"nodes":[
		{
			"mesh":0,
			"name":"D10",
			"scale":[
				1.1158334016799927,
				1.1158334016799927,
				1.1158334016799927
			]
		}
	],
	"materials":[
		{
			"doubleSided":true,
			"name":"Dice_Recess_BlackRed_UV_PBR",
			"normalTexture":{
				"index":0
			},
			"pbrMetallicRoughness":{
				"baseColorTexture":{
					"index":1
				},
				"metallicRoughnessTexture":{
					"index":2
				}
			}
		},
		{
			"doubleSided":true,
			"name":"Antique_Gold_UV_PBR",
			"normalTexture":{
				"index":3
			},
			"pbrMetallicRoughness":{
				"baseColorTexture":{
					"index":4
				},
				"metallicRoughnessTexture":{
					"index":5
				}
			}
		}
	],
	"meshes":[
		{
			"name":"D10_OptimizedMesh",
			"primitives":[
				{
					"attributes":{
						"POSITION":0,
						"NORMAL":1,
						"TEXCOORD_0":2,
						"TANGENT":3
					},
					"indices":4,
					"material":0
				},
				{
					"attributes":{
						"POSITION":5,
						"NORMAL":6,
						"TEXCOORD_0":7,
						"TANGENT":8
					},
					"indices":9,
					"material":1
				}
			]
		}
	],
	"textures":[
		{
			"sampler":0,
			"source":0
		},
		{
			"sampler":0,
			"source":1
		},
		{
			"sampler":0,
			"source":2
		},
		{
			"sampler":0,
			"source":3
		},
		{
			"sampler":0,
			"source":4
		},
		{
			"sampler":0,
			"source":5
		}
	],
	"images":[
		{
			"mimeType":"image/png",
			"name":"Dice_Recess_BlackRed_Normal",
			"uri":"textures/Dice_Recess_BlackRed_Normal.png"
		},
		{
			"mimeType":"image/png",
			"name":"Dice_Recess_BlackRed_BaseColor",
			"uri":"textures/Dice_Recess_BlackRed_BaseColor.png"
		},
		{
			"mimeType":"image/png",
			"name":"Dice_Recess_BlackRed_Metallic-Dice_Recess_BlackRed_Roughness",
			"uri":"textures/Dice_Recess_BlackRed_Metallic-Dice_Recess_BlackRed_Roughness.png"
		},
		{
			"mimeType":"image/png",
			"name":"Antique_Gold_Normal",
			"uri":"textures/Antique_Gold_Normal.png"
		},
		{
			"mimeType":"image/png",
			"name":"Antique_Gold_BaseColor",
			"uri":"textures/Antique_Gold_BaseColor.png"
		},
		{
			"mimeType":"image/png",
			"name":"Antique_Gold_Metallic-Antique_Gold_Roughness",
			"uri":"textures/Antique_Gold_Metallic-Antique_Gold_Roughness.png"
		}
	],
	"accessors":[
		{
			"bufferView":0,
			"componentType":5126,
			"count":40,
			"max":[
				0.3724376857280731,
				0.4269900918006897,
				0.354209303855896
			],
			"min":[
				-0.3724376857280731,
				-0.4269900918006897,
				-0.354209303855896
			],
			"type":"VEC3"
		},
		{
			"bufferView":1,
			"componentType":5126,
			"count":40,
			"type":"VEC3"
		},
		{
			"bufferView":2,
			"componentType":5126,
			"count":40,
			"type":"VEC2"
		},
		{
			"bufferView":3,
			"componentType":5126,
			"count":40,
			"type":"VEC4"
		},
		{
			"bufferView":4,
			"componentType":5123,
			"count":60,
			"type":"SCALAR"
		},
		{
			"bufferView":5,
			"componentType":5126,
			"count":8099,
			"max":[
				0.3772781491279602,
				0.4441397786140442,
				0.36076435446739197
			],
			"min":[
				-0.3772781193256378,
				-0.4441397786140442,
				-0.36076435446739197
			],
			"type":"VEC3"
		},
		{
			"bufferView":6,
			"componentType":5126,
			"count":8099,
			"type":"VEC3"
		},
		{
			"bufferView":7,
			"componentType":5126,
			"count":8099,
			"type":"VEC2"
		},
		{
			"bufferView":8,
			"componentType":5126,
			"count":8099,
			"type":"VEC4"
		},
		{
			"bufferView":9,
			"componentType":5123,
			"count":16824,
			"type":"SCALAR"
		}
	],
	"bufferViews":[
		{
			"buffer":0,
			"byteLength":480,
			"byteOffset":0,
			"target":34962
		},
		{
			"buffer":0,
			"byteLength":480,
			"byteOffset":480,
			"target":34962
		},
		{
			"buffer":0,
			"byteLength":320,
			"byteOffset":960,
			"target":34962
		},
		{
			"buffer":0,
			"byteLength":640,
			"byteOffset":1280,
			"target":34962
		},
		{
			"buffer":0,
			"byteLength":120,
			"byteOffset":1920,
			"target":34963
		},
		{
			"buffer":0,
			"byteLength":97188,
			"byteOffset":2040,
			"target":34962
		},
		{
			"buffer":0,
			"byteLength":97188,
			"byteOffset":99228,
			"target":34962
		},
		{
			"buffer":0,
			"byteLength":64792,
			"byteOffset":196416,
			"target":34962
		},
		{
			"buffer":0,
			"byteLength":129584,
			"byteOffset":261208,
			"target":34962
		},
		{
			"buffer":0,
			"byteLength":33648,
			"byteOffset":390792,
			"target":34963
		}
	],
	"samplers":[
		{
			"magFilter":9729,
			"minFilter":9987
		}
	],
	"buffers":[
		{
			"byteLength":424440,
			"uri":"D10_Percentile.bin"
		}
	]
}
