{
	"asset":{
		"generator":"Khronos glTF Blender I/O v5.2.39",
		"version":"2.0"
	},
	"scene":0,
	"scenes":[
		{
			"name":"Scene",
			"nodes":[
				0
			]
		}
	],
	"nodes":[
		{
			"mesh":0,
			"name":"D4_Corrected",
			"scale":[
				0.935429036617279,
				0.935429036617279,
				0.935429036617279
			]
		}
	],
	"materials":[
		{
			"doubleSided":true,
			"name":"Dice_Recess_BlackRed_UV_PBR",
			"normalTexture":{
				"index":0
			},
			"pbrMetallicRoughness":{
				"baseColorTexture":{
					"index":1
				},
				"metallicRoughnessTexture":{
					"index":2
				}
			}
		},
		{
			"doubleSided":true,
			"name":"Antique_Gold_UV_PBR",
			"normalTexture":{
				"index":3
			},
			"pbrMetallicRoughness":{
				"baseColorTexture":{
					"index":4
				},
				"metallicRoughnessTexture":{
					"index":5
				}
			}
		}
	],
	"meshes":[
		{
			"name":"D4_CorrectedMesh",
			"primitives":[
				{
					"attributes":{
						"POSITION":0,
						"NORMAL":1,
						"TEXCOORD_0":2,
						"TANGENT":3
					},
					"indices":4,
					"material":0
				},
				{
					"attributes":{
						"POSITION":5,
						"NORMAL":6,
						"TEXCOORD_0":7,
						"TANGENT":8
					},
					"indices":9,
					"material":1
				}
			]
		}
	],
	"textures":[
		{
			"sampler":0,
			"source":0
		},
		{
			"sampler":0,
			"source":1
		},
		{
			"sampler":0,
			"source":2
		},
		{
			"sampler":0,
			"source":3
		},
		{
			"sampler":0,
			"source":4
		},
		{
			"sampler":0,
			"source":5
		}
	],
	"images":[
		{
			"mimeType":"image/png",
			"name":"Dice_Recess_BlackRed_Normal",
			"uri":"textures/Dice_Recess_BlackRed_Normal.png"
		},
		{
			"mimeType":"image/png",
			"name":"Dice_Recess_BlackRed_BaseColor",
			"uri":"textures/Dice_Recess_BlackRed_BaseColor.png"
		},
		{
			"mimeType":"image/png",
			"name":"Dice_Recess_BlackRed_Metallic-Dice_Recess_BlackRed_Roughness",
			"uri":"textures/Dice_Recess_BlackRed_Metallic-Dice_Recess_BlackRed_Roughness.png"
		},
		{
			"mimeType":"image/png",
			"name":"Antique_Gold_Normal",
			"uri":"textures/Antique_Gold_Normal.png"
		},
		{
			"mimeType":"image/png",
			"name":"Antique_Gold_BaseColor",
			"uri":"textures/Antique_Gold_BaseColor.png"
		},
		{
			"mimeType":"image/png",
			"name":"Antique_Gold_Metallic-Antique_Gold_Roughness",
			"uri":"textures/Antique_Gold_Metallic-Antique_Gold_Roughness.png"
		}
	],
	"accessors":[
		{
			"bufferView":0,
			"componentType":5126,
			"count":12,
			"max":[
				0.35877108573913574,
				0.35877108573913574,
				0.35877108573913574
			],
			"min":[
				-0.35877108573913574,
				-0.35877108573913574,
				-0.35877108573913574
			],
			"type":"VEC3"
		},
		{
			"bufferView":1,
			"componentType":5126,
			"count":12,
			"type":"VEC3"
		},
		{
			"bufferView":2,
			"componentType":5126,
			"count":12,
			"type":"VEC2"
		},
		{
			"bufferView":3,
			"componentType":5126,
			"count":12,
			"type":"VEC4"
		},
		{
			"bufferView":4,
			"componentType":5123,
			"count":12,
			"type":"SCALAR"
		},
		{
			"bufferView":5,
			"componentType":5126,
			"count":5218,
			"max":[
				0.36710453033447266,
				0.36710453033447266,
				0.36710453033447266
			],
			"min":[
				-0.36710453033447266,
				-0.36710453033447266,
				-0.36710453033447266
			],
			"type":"VEC3"
		},
		{
			"bufferView":6,
			"componentType":5126,
			"count":5218,
			"type":"VEC3"
		},
		{
			"bufferView":7,
			"componentType":5126,
			"count":5218,
			"type":"VEC2"
		},
		{
			"bufferView":8,
			"componentType":5126,
			"count":5218,
			"type":"VEC4"
		},
		{
			"bufferView":9,
			"componentType":5123,
			"count":9444,
			"type":"SCALAR"
		}
	],
	"bufferViews":[
		{
			"buffer":0,
			"byteLength":144,
			"byteOffset":0,
			"target":34962
		},
		{
			"buffer":0,
			"byteLength":144,
			"byteOffset":144,
			"target":34962
		},
		{
			"buffer":0,
			"byteLength":96,
			"byteOffset":288,
			"target":34962
		},
		{
			"buffer":0,
			"byteLength":192,
			"byteOffset":384,
			"target":34962
		},
		{
			"buffer":0,
			"byteLength":24,
			"byteOffset":576,
			"target":34963
		},
		{
			"buffer":0,
			"byteLength":62616,
			"byteOffset":600,
			"target":34962
		},
		{
			"buffer":0,
			"byteLength":62616,
			"byteOffset":63216,
			"target":34962
		},
		{
			"buffer":0,
			"byteLength":41744,
			"byteOffset":125832,
			"target":34962
		},
		{
			"buffer":0,
			"byteLength":83488,
			"byteOffset":167576,
			"target":34962
		},
		{
			"buffer":0,
			"byteLength":18888,
			"byteOffset":251064,
			"target":34963
		}
	],
	"samplers":[
		{
			"magFilter":9729,
			"minFilter":9987
		}
	],
	"buffers":[
		{
			"byteLength":269952,
			"uri":"D4.bin"
		}
	]
}
