{
	"asset":{
		"generator":"Khronos glTF Blender I/O v5.2.39",
		"version":"2.0"
	},
	"scene":0,
	"scenes":[
		{
			"name":"Scene",
			"nodes":[
				0
			]
		}
	],
	"nodes":[
		{
			"mesh":0,
			"name":"D6",
			"rotation":[
				0.038407161831855774,
				0.022535286843776703,
				-0.0608951561152935,
				0.9971504211425781
			],
			"scale":[
				0.8989984393119812,
				0.8989983797073364,
				0.8989983797073364
			]
		}
	],
	"materials":[
		{
			"doubleSided":true,
			"name":"Dice_Recess_BlackRed_UV_PBR",
			"normalTexture":{
				"index":0
			},
			"pbrMetallicRoughness":{
				"baseColorTexture":{
					"index":1
				},
				"metallicRoughnessTexture":{
					"index":2
				}
			}
		},
		{
			"doubleSided":true,
			"name":"Antique_Gold_UV_PBR",
			"normalTexture":{
				"index":3
			},
			"pbrMetallicRoughness":{
				"baseColorTexture":{
					"index":4
				},
				"metallicRoughnessTexture":{
					"index":5
				}
			}
		}
	],
	"meshes":[
		{
			"name":"D6_OptimizedMesh",
			"primitives":[
				{
					"attributes":{
						"POSITION":0,
						"NORMAL":1,
						"TEXCOORD_0":2,
						"TANGENT":3
					},
					"indices":4,
					"material":0
				},
				{
					"attributes":{
						"POSITION":5,
						"NORMAL":6,
						"TEXCOORD_0":7,
						"TANGENT":8
					},
					"indices":9,
					"material":1
				}
			]
		}
	],
	"textures":[
		{
			"sampler":0,
			"source":0
		},
		{
			"sampler":0,
			"source":1
		},
		{
			"sampler":0,
			"source":2
		},
		{
			"sampler":0,
			"source":3
		},
		{
			"sampler":0,
			"source":4
		},
		{
			"sampler":0,
			"source":5
		}
	],
	"images":[
		{
			"mimeType":"image/png",
			"name":"Dice_Recess_BlackRed_Normal",
			"uri":"textures/Dice_Recess_BlackRed_Normal.png"
		},
		{
			"mimeType":"image/png",
			"name":"Dice_Recess_BlackRed_BaseColor",
			"uri":"textures/Dice_Recess_BlackRed_BaseColor.png"
		},
		{
			"mimeType":"image/png",
			"name":"Dice_Recess_BlackRed_Metallic-Dice_Recess_BlackRed_Roughness",
			"uri":"textures/Dice_Recess_BlackRed_Metallic-Dice_Recess_BlackRed_Roughness.png"
		},
		{
			"mimeType":"image/png",
			"name":"Antique_Gold_Normal",
			"uri":"textures/Antique_Gold_Normal.png"
		},
		{
			"mimeType":"image/png",
			"name":"Antique_Gold_BaseColor",
			"uri":"textures/Antique_Gold_BaseColor.png"
		},
		{
			"mimeType":"image/png",
			"name":"Antique_Gold_Metallic-Antique_Gold_Roughness",
			"uri":"textures/Antique_Gold_Metallic-Antique_Gold_Roughness.png"
		}
	],
	"accessors":[
		{
			"bufferView":0,
			"componentType":5126,
			"count":24,
			"max":[
				0.36000001430511475,
				0.36000004410743713,
				0.36000001430511475
			],
			"min":[
				-0.36000001430511475,
				-0.36000004410743713,
				-0.36000001430511475
			],
			"type":"VEC3"
		},
		{
			"bufferView":1,
			"componentType":5126,
			"count":24,
			"type":"VEC3"
		},
		{
			"bufferView":2,
			"componentType":5126,
			"count":24,
			"type":"VEC2"
		},
		{
			"bufferView":3,
			"componentType":5126,
			"count":24,
			"type":"VEC4"
		},
		{
			"bufferView":4,
			"componentType":5123,
			"count":36,
			"type":"SCALAR"
		},
		{
			"bufferView":5,
			"componentType":5126,
			"count":3351,
			"max":[
				0.36755064129829407,
				0.36674681305885315,
				0.36755064129829407
			],
			"min":[
				-0.36755064129829407,
				-0.36674681305885315,
				-0.36755064129829407
			],
			"type":"VEC3"
		},
		{
			"bufferView":6,
			"componentType":5126,
			"count":3351,
			"type":"VEC3"
		},
		{
			"bufferView":7,
			"componentType":5126,
			"count":3351,
			"type":"VEC2"
		},
		{
			"bufferView":8,
			"componentType":5126,
			"count":3351,
			"type":"VEC4"
		},
		{
			"bufferView":9,
			"componentType":5123,
			"count":6384,
			"type":"SCALAR"
		}
	],
	"bufferViews":[
		{
			"buffer":0,
			"byteLength":288,
			"byteOffset":0,
			"target":34962
		},
		{
			"buffer":0,
			"byteLength":288,
			"byteOffset":288,
			"target":34962
		},
		{
			"buffer":0,
			"byteLength":192,
			"byteOffset":576,
			"target":34962
		},
		{
			"buffer":0,
			"byteLength":384,
			"byteOffset":768,
			"target":34962
		},
		{
			"buffer":0,
			"byteLength":72,
			"byteOffset":1152,
			"target":34963
		},
		{
			"buffer":0,
			"byteLength":40212,
			"byteOffset":1224,
			"target":34962
		},
		{
			"buffer":0,
			"byteLength":40212,
			"byteOffset":41436,
			"target":34962
		},
		{
			"buffer":0,
			"byteLength":26808,
			"byteOffset":81648,
			"target":34962
		},
		{
			"buffer":0,
			"byteLength":53616,
			"byteOffset":108456,
			"target":34962
		},
		{
			"buffer":0,
			"byteLength":12768,
			"byteOffset":162072,
			"target":34963
		}
	],
	"samplers":[
		{
			"magFilter":9729,
			"minFilter":9987
		}
	],
	"buffers":[
		{
			"byteLength":174840,
			"uri":"D6.bin"
		}
	]
}
