{
	"asset":{
		"generator":"Khronos glTF Blender I/O v5.2.39",
		"version":"2.0"
	},
	"scene":0,
	"scenes":[
		{
			"name":"Scene",
			"nodes":[
				0
			]
		}
	],
	"nodes":[
		{
			"mesh":0,
			"name":"D8",
			"scale":[
				1.4231576919555664,
				1.4231576919555664,
				1.4231576919555664
			]
		}
	],
	"materials":[
		{
			"doubleSided":true,
			"name":"Dice_Recess_BlackRed_UV_PBR",
			"normalTexture":{
				"index":0
			},
			"pbrMetallicRoughness":{
				"baseColorTexture":{
					"index":1
				},
				"metallicRoughnessTexture":{
					"index":2
				}
			}
		},
		{
			"doubleSided":true,
			"name":"Antique_Gold_UV_PBR",
			"normalTexture":{
				"index":3
			},
			"pbrMetallicRoughness":{
				"baseColorTexture":{
					"index":4
				},
				"metallicRoughnessTexture":{
					"index":5
				}
			}
		}
	],
	"meshes":[
		{
			"name":"D8_OptimizedMesh",
			"primitives":[
				{
					"attributes":{
						"POSITION":0,
						"NORMAL":1,
						"TEXCOORD_0":2,
						"TANGENT":3
					},
					"indices":4,
					"material":0
				},
				{
					"attributes":{
						"POSITION":5,
						"NORMAL":6,
						"TEXCOORD_0":7,
						"TANGENT":8
					},
					"indices":9,
					"material":1
				}
			]
		}
	],
	"textures":[
		{
			"sampler":0,
			"source":0
		},
		{
			"sampler":0,
			"source":1
		},
		{
			"sampler":0,
			"source":2
		},
		{
			"sampler":0,
			"source":3
		},
		{
			"sampler":0,
			"source":4
		},
		{
			"sampler":0,
			"source":5
		}
	],
	"images":[
		{
			"mimeType":"image/png",
			"name":"Dice_Recess_BlackRed_Normal",
			"uri":"textures/Dice_Recess_BlackRed_Normal.png"
		},
		{
			"mimeType":"image/png",
			"name":"Dice_Recess_BlackRed_BaseColor",
			"uri":"textures/Dice_Recess_BlackRed_BaseColor.png"
		},
		{
			"mimeType":"image/png",
			"name":"Dice_Recess_BlackRed_Metallic-Dice_Recess_BlackRed_Roughness",
			"uri":"textures/Dice_Recess_BlackRed_Metallic-Dice_Recess_BlackRed_Roughness.png"
		},
		{
			"mimeType":"image/png",
			"name":"Antique_Gold_Normal",
			"uri":"textures/Antique_Gold_Normal.png"
		},
		{
			"mimeType":"image/png",
			"name":"Antique_Gold_BaseColor",
			"uri":"textures/Antique_Gold_BaseColor.png"
		},
		{
			"mimeType":"image/png",
			"name":"Antique_Gold_Metallic-Antique_Gold_Roughness",
			"uri":"textures/Antique_Gold_Metallic-Antique_Gold_Roughness.png"
		}
	],
	"accessors":[
		{
			"bufferView":0,
			"componentType":5126,
			"count":24,
			"max":[
				0.33754217624664307,
				0.33754217624664307,
				0.33754217624664307
			],
			"min":[
				-0.33754217624664307,
				-0.33754217624664307,
				-0.33754217624664307
			],
			"type":"VEC3"
		},
		{
			"bufferView":1,
			"componentType":5126,
			"count":24,
			"type":"VEC3"
		},
		{
			"bufferView":2,
			"componentType":5126,
			"count":24,
			"type":"VEC2"
		},
		{
			"bufferView":3,
			"componentType":5126,
			"count":24,
			"type":"VEC4"
		},
		{
			"bufferView":4,
			"componentType":5123,
			"count":24,
			"type":"SCALAR"
		},
		{
			"bufferView":5,
			"componentType":5126,
			"count":4573,
			"max":[
				0.3513961732387543,
				0.3513961732387543,
				0.3513961732387543
			],
			"min":[
				-0.3513961732387543,
				-0.3513961732387543,
				-0.3513961732387543
			],
			"type":"VEC3"
		},
		{
			"bufferView":6,
			"componentType":5126,
			"count":4573,
			"type":"VEC3"
		},
		{
			"bufferView":7,
			"componentType":5126,
			"count":4573,
			"type":"VEC2"
		},
		{
			"bufferView":8,
			"componentType":5126,
			"count":4573,
			"type":"VEC4"
		},
		{
			"bufferView":9,
			"componentType":5123,
			"count":7692,
			"type":"SCALAR"
		}
	],
	"bufferViews":[
		{
			"buffer":0,
			"byteLength":288,
			"byteOffset":0,
			"target":34962
		},
		{
			"buffer":0,
			"byteLength":288,
			"byteOffset":288,
			"target":34962
		},
		{
			"buffer":0,
			"byteLength":192,
			"byteOffset":576,
			"target":34962
		},
		{
			"buffer":0,
			"byteLength":384,
			"byteOffset":768,
			"target":34962
		},
		{
			"buffer":0,
			"byteLength":48,
			"byteOffset":1152,
			"target":34963
		},
		{
			"buffer":0,
			"byteLength":54876,
			"byteOffset":1200,
			"target":34962
		},
		{
			"buffer":0,
			"byteLength":54876,
			"byteOffset":56076,
			"target":34962
		},
		{
			"buffer":0,
			"byteLength":36584,
			"byteOffset":110952,
			"target":34962
		},
		{
			"buffer":0,
			"byteLength":73168,
			"byteOffset":147536,
			"target":34962
		},
		{
			"buffer":0,
			"byteLength":15384,
			"byteOffset":220704,
			"target":34963
		}
	],
	"samplers":[
		{
			"magFilter":9729,
			"minFilter":9987
		}
	],
	"buffers":[
		{
			"byteLength":236088,
			"uri":"D8.bin"
		}
	]
}
